<svg id="Capa_1" enable-background="new 0 0 512 512" height="512" viewBox="0 0 512 512" width="512" xmlns="http://www.w3.org/2000/svg"><g><g><path d="m183.564 203.935c-1.48-10.509-10.6-18.434-21.212-18.434s-19.732 7.925-21.212 18.434l-3.793 26.93c-.718 5.098.807 10.25 4.184 14.136s8.267 6.115 13.415 6.115h14.813c5.148 0 10.038-2.229 13.415-6.115s4.902-9.038 4.184-14.136zm-11.713 31.226c-.31.356-.993.954-2.093.954h-14.813c-1.1 0-1.783-.598-2.093-.954s-.806-1.116-.653-2.205l3.793-26.93c.444-3.15 3.177-5.526 6.359-5.526s5.915 2.375 6.359 5.526l3.793 26.93c.154 1.089-.343 1.849-.652 2.205z"/><path d="m211.599 184.652h-.104c-.012 0-.024 0-.036 0-.003 0-.006 0-.01 0h-.001c-4.125 0-7.479 3.334-7.499 7.465-.02 4.142 3.323 7.516 7.465 7.535h.104.036.01.002c4.125 0 7.479-3.335 7.499-7.465.018-4.142-3.323-7.516-7.466-7.535z"/><path d="m108.285 184.652h-.104c-.012 0-.024 0-.036 0-4.125 0-7.479 3.334-7.499 7.465-.02 4.142 3.323 7.516 7.465 7.535h.104.036c4.125 0 7.479-3.334 7.499-7.465.019-4.142-3.323-7.515-7.465-7.535z"/><path d="m276.558 467.474c-35.544-7.708-61.343-39.733-61.343-76.149v-12.962c0-4.142-3.358-7.5-7.5-7.5s-7.5 3.358-7.5 7.5v12.962c0 21.349 7.422 42.199 20.899 58.709 11.988 14.686 28.279 25.404 46.355 30.608v23.858c0 4.142 3.358 7.5 7.5 7.5s7.5-3.358 7.5-7.5v-29.696c0-3.53-2.461-6.582-5.911-7.33z"/><path d="m478.821 70.736c-42.819-42.813-112.49-42.813-155.308 0-1.555 1.555-3.048 3.15-4.49 4.774-10.95-31.559-31.82-54.026-62.199-66.868-13.564-5.734-28.469-8.642-44.302-8.642h-97.305c-15.833 0-30.738 2.908-44.301 8.642-37.272 15.757-60.911 47.281-68.363 91.164-3.895 22.937-.13 40.943 11.189 53.521 1.821 2.023 3.849 3.873 6.037 5.589-9.55 8.633-15.22 21.029-15.22 34.155 0 23.425 17.981 43.285 41.14 45.731 4.23 23.809 15.641 45.701 33.17 63.102 22.367 22.202 51.978 34.396 83.472 34.396.299 0 .6-.001.899-.003 12.706-.093 25.105-2.198 36.975-6.265v12.08c0 4.142 3.358 7.5 7.5 7.5s7.5-3.358 7.5-7.5v-51.29c0-8.341 5.999-15.538 13.955-16.739 3.079-.465 6.157-.044 8.947 1.164v77.015c0 8.013.667 16.083 1.981 23.986.61 3.669 3.788 6.271 7.389 6.271.409 0 .823-.033 1.24-.103 4.086-.68 6.848-4.543 6.168-8.629-1.18-7.093-1.778-14.335-1.778-21.525v-142.437c0-3.446 1.366-6.663 3.847-9.057 2.479-2.392 5.74-3.639 9.204-3.52 6.683.238 12.119 6.095 12.119 13.058v123.147c0 4.142 3.358 7.5 7.5 7.5s7.5-3.358 7.5-7.5c0 0 0-112.364 0-112.877 0-3.446 1.366-6.663 3.848-9.058 2.479-2.393 5.751-3.642 9.204-3.519.983.035 1.949.19 2.883.458 2.758 4.219 5.838 8.286 9.236 12.171v112.825c0 4.142 3.358 7.5 7.5 7.5s7.5-3.358 7.5-7.5v-98.589c7.748 6.086 16.205 11.047 25.17 14.805v83.784c0 4.142 3.358 7.5 7.5 7.5s7.5-3.358 7.5-7.5v-78.749c8.154 2.091 16.603 3.254 25.219 3.431l1.516 146.64c.252 24.362-7.043 47.759-21.096 67.662-.921 1.305-1.402 2.869-1.372 4.466l.52 27.737c.077 4.093 3.419 7.359 7.496 7.359.048 0 .096 0 .144-.001 4.141-.078 7.436-3.498 7.358-7.639l-.474-25.318c14.954-22.042 22.7-47.72 22.424-74.421l-1.522-147.18c24.559-2.796 47.277-13.693 64.981-31.394 42.816-42.82 42.816-112.491-.001-155.31zm-307.451 21.903c.896-8.075 7.808-14.78 15.95-14.78 4.142 0 7.5-3.358 7.5-7.5s-3.358-7.5-7.5-7.5c-5.814 0-11.277 1.607-15.95 4.414v-10.838c.885-8.088 7.796-14.793 15.95-14.793 4.142 0 7.5-3.358 7.5-7.5s-3.358-7.5-7.5-7.5c-5.816 0-11.278 1.606-15.95 4.411v-16.053h41.152c13.815 0 26.755 2.509 38.46 7.458 29.31 12.391 48.437 35.266 56.884 67.988-1.885 3.034-3.609 6.14-5.17 9.307-23.334-20.972-68.698-24.966-70.828-25.142-4.142-.334-7.751 2.729-8.092 6.857s2.729 7.751 6.857 8.092c13.911 1.149 52.261 7.957 65.921 25.479-3.76 11.862-5.46 24.239-5.102 36.569-34.204 16.53-100.087-2.283-120.081-8.651v-50.318zm-151.811 100.432c0-10.588 5.475-20.471 14.363-26.144 3.096 1.229 6.417 2.264 9.931 3.131v47.745c0 1.86.047 3.713.131 5.559-13.982-3.043-24.425-15.632-24.425-30.291zm136.811-88.514v38.404c-7.859 2.511-22.198 6.756-38.867 10.122-4.06.82-6.687 4.776-5.867 8.836.82 4.061 4.772 6.688 8.836 5.867 19.63-3.964 36.199-9.112 43.395-11.489 14.016 4.649 54.336 16.853 91.292 16.851 3.605 0 7.174-.125 10.688-.376v9.477c-7.246-.044-14.07 2.679-19.299 7.726-5.437 5.247-8.431 12.296-8.431 19.85v49.739c-3.634-.765-7.412-.881-11.188-.311-15.229 2.3-26.714 15.873-26.714 31.571v23.215c-11.798 4.724-24.261 7.165-37.085 7.259-27.835.182-53.973-10.463-73.692-30.039-19.723-19.578-30.584-45.665-30.584-73.455v-45.255c4.306.411 8.83.628 13.596.628 3.74 0 7.622-.126 11.642-.38 4.134-.261 7.274-3.823 7.013-7.957-.261-4.133-3.821-7.256-7.958-7.013-28.359 1.792-47.965-3.1-58.254-14.534-5.528-6.142-8.461-14.517-8.788-24.996.02-.035.044-.064.064-.099 3.134-5.711 16.525-24.592 57.241-27.779 4.129-.323 7.215-3.933 6.892-8.063-.324-4.13-3.938-7.213-8.063-6.892-25.553 2-42.323 9.785-53.049 17.758 8.067-34.22 27.394-58.008 57.568-70.765 11.704-4.948 24.644-7.457 38.459-7.457h41.153v25.714c-6.261-4.698-14.01-7.484-22.326-7.484-4.142 0-7.5 3.358-7.5 7.5s3.358 7.5 7.5 7.5c11.614 0 21.457 9.574 22.326 21.137v9.59c-4.659-2.782-10.114-4.373-15.951-4.373-4.142 0-7.5 3.358-7.5 7.5s3.358 7.5 7.5 7.5c8.18.001 15.222 6.841 15.951 14.973zm134.032 93.17c-2.178-4.455-5.485-8.228-9.555-10.934v-16.054c4.243-.886 8.325-2.034 12.173-3.5 1.549 8.964 4.216 17.768 7.993 26.193-3.805.67-7.409 2.115-10.611 4.295zm110.764 45.436c-25.355 0-49.167-9.846-67.047-27.725-36.969-36.97-36.969-97.125 0-134.095 18.485-18.483 42.767-27.724 67.048-27.724s48.563 9.241 67.047 27.724c36.969 36.97 36.969 97.125 0 134.095-17.881 17.878-41.692 27.725-67.048 27.725z"/><path d="m379.818 140.678c-2.929-2.929-7.678-2.929-10.606 0l-20.212 20.211c-4.279-17.918.865-37.171 14.182-50.487 10.127-10.128 23.617-15.706 37.985-15.706 4.179 0 8.394.514 12.513 1.514l-18.835 18.835c-2.929 2.929-2.929 7.678 0 10.606 2.929 2.93 7.678 2.929 10.606 0l27.217-27.216c1.725-1.725 2.503-4.182 2.086-6.586s-1.978-4.455-4.184-5.498c-9.208-4.354-19.376-6.655-29.404-6.655-18.375 0-35.632 7.138-48.592 20.099-20.437 20.436-25.841 51.781-13.446 77.997 1.042 2.206 3.093 3.767 5.498 4.184.428.074.856.11 1.283.11 1.971 0 3.884-.778 5.303-2.197l28.606-28.606c2.929-2.928 2.929-7.677 0-10.605z"/><path d="m463.204 118.988c-1.042-2.206-3.093-3.767-5.498-4.184-2.402-.417-4.86.361-6.586 2.086l-81.455 81.455c-1.726 1.725-2.503 4.182-2.086 6.586s1.978 4.455 4.184 5.498c9.391 4.44 19.438 6.596 29.407 6.596 17.862 0 35.474-6.925 48.587-20.04 20.438-20.436 25.842-51.781 13.447-77.997zm-24.052 67.389c0 .001-.001.001 0 0-13.315 13.318-32.566 18.461-50.485 14.18l64.666-64.667c4.279 17.919-.864 37.172-14.181 50.487z"/><path d="m94.832 40.575c-8.946 0-17.174.8-24.454 2.379-4.048.878-6.618 4.871-5.74 8.919.762 3.513 3.869 5.912 7.322 5.912.526 0 1.062-.056 1.597-.172 6.238-1.353 13.396-2.039 21.275-2.039 4.142 0 7.5-3.358 7.5-7.5s-3.358-7.499-7.5-7.499z"/><path d="m221.321 61.308c.244 0 24.658.125 45.411 7.17.799.271 1.612.4 2.411.4 3.125 0 6.042-1.968 7.102-5.091 1.332-3.922-.769-8.181-4.691-9.513-23.144-7.856-49.123-7.965-50.217-7.966-.002 0-.003 0-.005 0-4.138 0-7.493 3.352-7.498 7.491-.008 4.139 3.346 7.501 7.487 7.509z"/></g></g></svg>