<?xml version="1.0"?>
<svg xmlns="http://www.w3.org/2000/svg" viewBox="0 0 64 64" width="512" height="512"><g id="cleaning_&#xB7;_hygiene_&#xB7;_liquid_&#xB7;_wash_&#xB7;_handwash" data-name="cleaning &#xB7;  hygiene &#xB7; liquid  &#xB7; wash  &#xB7; handwash"><path d="M39,23V22a1,1,0,0,0-2,0v1a1,1,0,0,0,2,0Z"/><path d="M38,32a1,1,0,0,0-1,1v1a1,1,0,0,0,2,0V33A1,1,0,0,0,38,32Z"/><path d="M56,25a1,1,0,0,0,0-2,3,3,0,1,0,3,3,1,1,0,0,0-2,0,1,1,0,1,1-1-1Z"/><path d="M57,49a1,1,0,0,0-1,1,1,1,0,1,1-1-1,1,1,0,0,0,0-2,3,3,0,1,0,3,3A1,1,0,0,0,57,49Z"/><path d="M53,56a1,1,0,0,0,0,2,1,1,0,1,1-1,1,1,1,0,0,0-2,0,3,3,0,1,0,3-3Z"/><path d="M59,39a1,1,0,0,0,0,2,1,1,0,1,1-1,1,1,1,0,0,0-2,0,3,3,0,1,0,3-3Z"/><path d="M51.57,11.18A.944.944,0,0,0,51,11H36V8a3.009,3.009,0,0,1,3-3H49.79a2.928,2.928,0,0,1,1.64.49l8.99,6.33a1,1,0,0,0,1.16-1.64L52.56,3.84A4.959,4.959,0,0,0,49.79,3H39a5,5,0,0,0-5,5v4a1,1,0,0,0,1,1h1v3a1,1,0,0,0,1,1v2a1,1,0,0,0,2,0V17h2v7a1,1,0,0,0,2,0V17h2V27a1.066,1.066,0,0,0,.06.31A3.975,3.975,0,0,0,44,30a1,1,0,0,0,2,0,2,2,0,1,1,2,2,1,1,0,0,0,0,2,3.979,3.979,0,0,0,3.42-1.96,3.981,3.981,0,0,1,1.62,7.39A3.964,3.964,0,0,0,50,38a1,1,0,0,0,0,2,2,2,0,0,1,0,4,1.134,1.134,0,0,0-.32.06.991.991,0,0,0-1.28,1.51A2,2,0,0,1,47,49a.884.884,0,0,0-.33.07A4.9,4.9,0,0,0,46,49a1,1,0,0,0,0,2,3,3,0,1,1-3,3,1,1,0,0,0-2,0,4.986,4.986,0,0,0,2,3.98V58a2.006,2.006,0,0,1-2,2,1,1,0,0,0,0,2,4,4,0,0,0,3.9-3.13A4.944,4.944,0,0,0,46,59a5,5,0,0,0,5-5,4.949,4.949,0,0,0-1.71-3.73,3.889,3.889,0,0,0,1.54-4.36A4,4,0,0,0,54,42a3.766,3.766,0,0,0-.08-.76,5.994,5.994,0,0,0-1.93-11.15c0-.03.01-.06.01-.09a4,4,0,0,0-4-4,4.091,4.091,0,0,0-1,.14V17a1,1,0,0,0,1-1V13h2.68l9.75,6.82A.988.988,0,0,0,61,20a1.011,1.011,0,0,0,.82-.43.989.989,0,0,0-.25-1.39ZM46,15H38V13h8Z"/><path d="M36,31a1,1,0,0,0,0-2,1,1,0,1,1,1-1,1,1,0,0,0,2,0,3,3,0,1,0-3,3Z"/><path d="M43,34V29a1,1,0,0,0-2,0v5a1,1,0,0,0,2,0Z"/><path d="M38,59a1,1,0,0,0-1,1v1a1,1,0,0,0,2,0V60A1,1,0,0,0,38,59Z"/><path d="M49,37V36a1,1,0,0,0-2,0v1a1,1,0,0,0,2,0Z"/><path d="M17,32A15.017,15.017,0,0,0,32,17,14.863,14.863,0,0,0,28.158,7H30a1,1,0,0,0,0-2H26a1,1,0,0,0-1,1v4a1,1,0,0,0,2,0V8.692a12.973,12.973,0,1,1-5.357-3.838,1,1,0,0,0,.714-1.869A15,15,0,1,0,17,32Z"/><path d="M20,8a3,3,0,0,0-3,3v2a3,3,0,0,0,6,0V11A3,3,0,0,0,20,8Zm1,5a1,1,0,0,1-2,0V11a1,1,0,0,1,2,0Z"/><path d="M11.5,20H13a1,1,0,0,0,0-2H11.5a2.5,2.5,0,0,0,0,5,.5.5,0,0,1,0,1H10a1,1,0,0,0,0,2h1.5a2.5,2.5,0,0,0,0-5,.5.5,0,0,1,0-1Z"/><path d="M19,20a1,1,0,0,0,0-2H16a1,1,0,0,0-1,1v6a1,1,0,0,0,1,1h3a1,1,0,0,0,0-2H17V23h1a1,1,0,0,0,0-2H17V20Z"/><path d="M20,21v2a3,3,0,0,0,3,3h1a1,1,0,0,0,0-2H23a1,1,0,0,1-1-1V21a1,1,0,0,1,1-1h1a1,1,0,0,0,0-2H23A3,3,0,0,0,20,21Z"/><path d="M16,15a1,1,0,0,0-1-1H13.236l1.316-.658A2.6,2.6,0,0,0,16,11a3,3,0,0,0-6,0,1,1,0,0,0,2,0,1,1,0,0,1,2,0,.615.615,0,0,1-.342.553l-2.553,1.276A1.99,1.99,0,0,0,10,14.618V15a1,1,0,0,0,1,1h4A1,1,0,0,0,16,15Z"/><path d="M45.99,42.74a3.037,3.037,0,0,0-2.21-2.61,2.97,2.97,0,0,0,.21-1.39A3.073,3.073,0,0,0,40.89,36H33.44A3.906,3.906,0,0,0,34,34V33a1,1,0,0,0-1-1H22.66a4.994,4.994,0,0,0-3.54,1.46l-.66.66a3,3,0,0,1-2.12.88H3a1,1,0,0,0,0,2H16.34a4.994,4.994,0,0,0,3.54-1.46l.66-.66A3,3,0,0,1,22.66,34H32a2.006,2.006,0,0,1-2,2H27a1,1,0,0,0-1,1,3.009,3.009,0,0,1-3,3H16.66a4.994,4.994,0,0,0-3.54,1.46l-.66.66a3,3,0,0,1-2.12.88H3a1,1,0,0,0,0,2h7.34a4.994,4.994,0,0,0,3.54-1.46l.66-.66A3,3,0,0,1,16.66,42H26a2.006,2.006,0,0,1-2,2H21a1,1,0,0,0,0,2H34.89a1.092,1.092,0,0,1,1.11.91.985.985,0,0,1-.31.8A.928.928,0,0,1,35,48H25a1,1,0,0,0,0,2H36.89a1.092,1.092,0,0,1,1.11.91.985.985,0,0,1-.31.8A.928.928,0,0,1,37,52H25a1,1,0,0,0,0,2H35a1,1,0,0,1,1,1,.949.949,0,0,1-.31.71A.928.928,0,0,1,35,56H25a1,1,0,0,0,0,2h6a1,1,0,0,1,1,1,.949.949,0,0,1-.31.71A.928.928,0,0,1,31,60H16.66a3,3,0,0,1-2.12-.88l-.66-.66A4.994,4.994,0,0,0,10.34,57H3a1,1,0,0,0,0,2h7.34a3,3,0,0,1,2.12.88l.66.66A4.994,4.994,0,0,0,16.66,62H31a3,3,0,0,0,3-3,3,3,0,0,0-.17-1H35a3,3,0,0,0,3-3,2.873,2.873,0,0,0-.21-1.1,2.942,2.942,0,0,0,1.32-.77,2.977,2.977,0,0,0,.88-2.39,3.064,3.064,0,0,0-.17-.74H41a3,3,0,0,0,3-3,2.873,2.873,0,0,0-.21-1.1,2.942,2.942,0,0,0,1.32-.77A2.977,2.977,0,0,0,45.99,42.74Zm-4.3,4.97A.928.928,0,0,1,41,48H38a1.416,1.416,0,0,0-.2.04,2.863,2.863,0,0,0,.19-1.3,2.671,2.671,0,0,0-.18-.74H41a1,1,0,0,1,1,1A.949.949,0,0,1,41.69,47.71Zm2-4A.928.928,0,0,1,43,44H27.44A3.906,3.906,0,0,0,28,42V41a1,1,0,0,0-1-1h-.02a4.952,4.952,0,0,0,.92-2H40.89a1.092,1.092,0,0,1,1.11.91.985.985,0,0,1-.31.8A.928.928,0,0,1,41,40H32a1,1,0,0,0,0,2H42.89a1.092,1.092,0,0,1,1.11.91A.985.985,0,0,1,43.69,43.71Z"/></g></svg>
